<svg width="634.975" height="634.975" xmlns="http://www.w3.org/2000/svg">

 <g>
  <title>background</title>
  <rect fill="none" id="canvas_background" height="402" width="582" y="-1" x="-1"/>
 </g>
 <g>
  <title>Layer 1</title>
  <g id="svg_1">
   <g id="_x31_">
    <g id="svg_2">
     <path class="svg__left" fill="#cccccc" id="svg_3" d="m283.123,159.091l0,-133.668c0.771,-6.686 -1.065,-13.598 -6.232,-18.743c-8.975,-8.907 -23.524,-8.907 -32.5,0l-226.361,248.209c-4.782,4.759 -6.822,11.06 -6.504,17.292c-0.317,6.232 1.722,12.533 6.504,17.292l225.137,246.849c8.408,7.184 23.819,11.264 33.746,1.359c5.145,-5.145 7.388,-9.473 6.618,-16.158c0,0 0,-122.586 0,-135.98c149.578,0 284.855,107.695 311.711,249.432c18.085,-41.564 28.238,-87.344 28.238,-135.572c0,-187.946 -152.387,-340.312 -340.357,-340.312z"/>
    </g>
   </g>
  </g>
  <g id="svg_4"/>
  <g id="svg_5"/>
  <g id="svg_6"/>
  <g id="svg_7"/>
  <g id="svg_8"/>
  <g id="svg_9"/>
  <g id="svg_10"/>
  <g id="svg_11"/>
  <g id="svg_12"/>
  <g id="svg_13"/>
  <g id="svg_14"/>
  <g id="svg_15"/>
  <g id="svg_16"/>
  <g id="svg_17"/>
  <g id="svg_18"/>
 </g>
</svg>