<svg width="634.998" height="634.998" xmlns="http://www.w3.org/2000/svg">

 <g>
  <title>background</title>
  <rect fill="none" id="canvas_background" height="402" width="582" y="-1" x="-1"/>
 </g>
 <g>
  <title>Layer 1</title>
  <g id="svg_1">
   <g id="_x32_">
    <g id="svg_2">
     <path fill="#cccccc" id="svg_3" d="m616.956,254.889l-226.384,-248.209c-8.975,-8.907 -23.524,-8.907 -32.499,0c-5.167,5.122 -7.003,12.057 -6.232,18.743l0,133.668c-187.947,0 -340.335,152.366 -340.335,340.335c0,48.205 10.153,94.008 28.238,135.572c26.856,-141.781 162.133,-249.455 311.711,-249.455c0,13.395 0,135.98 0,135.98c-0.771,6.686 1.474,11.014 6.618,16.158c9.927,9.926 25.338,5.824 33.745,-1.359l225.138,-246.849c4.782,-4.759 6.821,-11.06 6.505,-17.292c0.316,-6.232 -1.723,-12.533 -6.505,-17.292z"/>
    </g>
   </g>
  </g>
  <g id="svg_4"/>
  <g id="svg_5"/>
  <g id="svg_6"/>
  <g id="svg_7"/>
  <g id="svg_8"/>
  <g id="svg_9"/>
  <g id="svg_10"/>
  <g id="svg_11"/>
  <g id="svg_12"/>
  <g id="svg_13"/>
  <g id="svg_14"/>
  <g id="svg_15"/>
  <g id="svg_16"/>
  <g id="svg_17"/>
  <g id="svg_18"/>
 </g>
</svg>